<?xml version="1.0" encoding="UTF-8"?>
<svg width="16px" height="14px" viewBox="0 0 16 14" version="1.1" xmlns="http://www.w3.org/2000/svg" xmlns:xlink="http://www.w3.org/1999/xlink">
    <title>编组</title>
    <g id="个人中心" stroke="none" stroke-width="1" fill="none" fill-rule="evenodd">
        <g id="我的资产" transform="translate(-73.000000, -106.000000)" fill="#3D527E" fill-rule="nonzero">
            <g id="编组" transform="translate(73.000000, 106.000000)">
                <path d="M15.4,4.576 C13.552,1.671992 10.848,0 8,0 C6.576,0 5.192,0.416 3.928,1.192 C2.664,1.976 1.528,3.119992 0.6,4.576 C-0.2,5.832016 -0.2,7.872016 0.6,9.128016 C2.448,12.040016 5.152,13.704016 8,13.704016 C9.424,13.704016 10.808,13.288016 12.072,12.512016 C13.336,11.728016 14.472,10.584016 15.4,9.128016 C16.2,7.880016 16.2,5.832016 15.4,4.576 Z M8,10.088016 C6.208,10.088016 4.768,8.640016 4.768,6.856016 C4.768,5.072 6.208,3.624 8,3.624 C9.792,3.624 11.232,5.072 11.232,6.856016 C11.232,8.640016 9.792,10.088016 8,10.088016 Z" id="形状"></path>
                <path d="M7.99992,4.567968 C6.74392,4.567968 5.71992,5.591936 5.71992,6.855936 C5.71992,8.111936 6.74392,9.135936 7.99992,9.135936 C9.25592,9.135936 10.28792,8.111936 10.28792,6.855936 C10.28792,5.599936 9.25592,4.567968 7.99992,4.567968 Z" id="路径"></path>
            </g>
        </g>
    </g>
</svg>