<?xml version="1.0" encoding="UTF-8"?>
<svg width="15px" height="16px" viewBox="0 0 15 16" version="1.1" xmlns="http://www.w3.org/2000/svg" xmlns:xlink="http://www.w3.org/1999/xlink">
    <title>编组</title>
    <g id="个人中心" stroke="none" stroke-width="1" fill="none" fill-rule="evenodd">
        <g id="我的资产" transform="translate(-73.000000, -155.000000)" fill="#3D527E" fill-rule="nonzero">
            <g id="编组" transform="translate(73.000000, 155.000000)">
                <path d="M7.09450927,7.80487805 C9.24974829,7.80487805 10.9969483,6.05769366 10.9969483,3.90243902 C10.9969483,1.74718439 9.24974829,0 7.09450927,0 C4.93925463,0 3.19207024,1.74718439 3.19207024,3.90243902 C3.19207024,6.05769366 4.93925463,7.80487805 7.09450927,7.80487805 Z" id="路径"></path>
                <path d="M7.09466537,9.75609756 C3.18439024,9.75609756 0,12.3785366 0,15.6097561 C0,15.8282927 0.171707317,16 0.390243902,16 L13.7990556,16 C14.0175922,16 14.1892995,15.8282927 14.1892995,15.6097561 C14.1892995,12.3785366 11.0049093,9.75609756 7.09466537,9.75609756 Z" id="路径"></path>
            </g>
        </g>
    </g>
</svg>