<?xml version="1.0" encoding="UTF-8"?>
<svg width="16px" height="14px" viewBox="0 0 16 14" version="1.1" xmlns="http://www.w3.org/2000/svg" xmlns:xlink="http://www.w3.org/1999/xlink">
    <title>编组</title>
    <g id="个人中心" stroke="none" stroke-width="1" fill="none" fill-rule="evenodd">
        <g id="我的资产" transform="translate(-73.000000, -206.000000)" fill="#3D527E" fill-rule="nonzero">
            <g id="编组" transform="translate(73.000000, 206.000000)">
                <path d="M16,5.97601793 L16,7.62402287 C16,8.06402419 15.6479989,8.42402527 15.1999976,8.44002532 L13.6319929,8.44002532 C12.7679903,8.44002532 11.9759879,7.80802342 11.9039877,6.94402083 C11.8559876,6.44001932 12.0479881,5.9680179 12.3839892,5.64001692 C12.67999,5.33601601 13.0879913,5.15997548 13.5359926,5.15997548 L15.1999976,5.15997548 C15.6479989,5.17597553 16,5.53601661 16,5.97601793 Z" id="路径"></path>
                <path d="M14.7760763,9.64002892 L13.6320729,9.64002892 C12.1120683,9.64002892 10.8320645,8.49602549 10.7040641,7.04002112 C10.6320639,6.20801862 10.9360648,5.37601613 11.5440666,4.78401435 C12.0560682,4.25601277 12.7680703,3.96001188 13.5360726,3.96001188 L14.7760763,3.96001188 C15.008077,3.96001188 15.2000776,3.7680113 15.1760775,3.53601061 C15.000077,1.59200478 13.7120731,0.264000792 11.8000674,0.04000012 C11.6080668,0.008000024 11.4080662,0 11.2000656,0 L4.000012,0 C3.77601133,0 3.56001068,0.016000048 3.35201006,0.048000144 C1.31200394,0.304000912 0,1.82400547 0,4.000012 L0,9.6000288 C0,11.8080354 1.79200538,13.6000408 4.000012,13.6000408 L11.2000656,13.6000408 C13.4400723,13.6000408 14.984077,12.2000366 15.1760775,10.0640302 C15.2000776,9.8320295 15.008077,9.64002892 14.7760763,9.64002892 Z M8.8000584,5.000015 L4.000012,5.000015 C3.67201102,5.000015 3.4000102,4.72801418 3.4000102,4.4000132 C3.4000102,4.07201222 3.67201102,3.8000114 4.000012,3.8000114 L8.8000584,3.8000114 C9.12805938,3.8000114 9.4000602,4.07201222 9.4000602,4.4000132 C9.4000602,4.72801418 9.12805938,5.000015 8.8000584,5.000015 Z" id="形状"></path>
            </g>
        </g>
    </g>
</svg>