<?xml version="1.0" encoding="UTF-8"?>
<svg width="16px" height="16px" viewBox="0 0 16 16" version="1.1" xmlns="http://www.w3.org/2000/svg" xmlns:xlink="http://www.w3.org/1999/xlink">
    <title>编组</title>
    <g id="个人中心" stroke="none" stroke-width="1" fill="none" fill-rule="evenodd">
        <g id="我的资产" transform="translate(-73.000000, -255.000000)" fill="#3D527E" fill-rule="nonzero">
            <g id="编组" transform="translate(73.000000, 255.000000)">
                <path d="M3.88679704,0 L3.10943763,0 C0.777359407,0 0,1.39147334 0,3.10943763 L0,3.88679704 L0,14.7698287 C0,15.415037 0.730717843,15.780396 1.24377505,15.3917163 L2.57305964,14.3966962 C2.8840034,14.1634884 3.31932467,14.1945828 3.59917406,14.4744322 L4.88959067,15.7726224 C5.19276084,16.0757925 5.69027086,16.0757925 5.99344103,15.7726224 L7.29939706,14.4666586 C7.57147285,14.1945828 8.00679412,14.1634884 8.30996429,14.3966962 L9.63924888,15.3917163 C10.1523061,15.7726224 10.8830239,15.4072635 10.8830239,14.7698287 L10.8830239,1.55471881 C10.8830239,0.699623467 11.5826474,0 12.4377427,0 L3.88679704,0 Z M7.19056674,9.13397304 L3.69245718,9.13397304 C3.37373983,9.13397304 3.10943763,8.86967084 3.10943763,8.55095348 C3.10943763,8.23223612 3.37373983,7.96793392 3.69245718,7.96793392 L7.19056674,7.96793392 C7.5092841,7.96793392 7.7735863,8.23223612 7.7735863,8.55095348 C7.7735863,8.86967084 7.5092841,9.13397304 7.19056674,9.13397304 Z M7.7735863,6.02453541 L3.10943763,6.02453541 C2.79072027,6.02453541 2.52641807,5.76023321 2.52641807,5.44151585 C2.52641807,5.12279849 2.79072027,4.8584963 3.10943763,4.8584963 L7.7735863,4.8584963 C8.09230366,4.8584963 8.35660585,5.12279849 8.35660585,5.44151585 C8.35660585,5.76023321 8.09230366,6.02453541 7.7735863,6.02453541 Z" id="形状"></path>
                <path d="M12.4455163,0 L12.4455163,1.16603911 C12.9585735,1.16603911 13.44831,1.37592615 13.8058953,1.72573788 C14.1790278,2.10664399 14.3811413,2.59638042 14.3811413,3.10943763 L14.3811413,4.99064739 C14.3811413,5.56589336 14.1246127,5.83019555 13.5415931,5.83019555 L12.049063,5.83019555 L12.049063,1.56249241 C12.049063,1.34483177 12.2278557,1.16603911 12.4455163,1.16603911 L12.4455163,0 Z M12.4455163,0 C11.5826474,0 10.8830239,0.699623467 10.8830239,1.56249241 L10.8830239,6.99623467 L13.5415931,6.99623467 C14.769821,6.99623467 15.5471804,6.21887526 15.5471804,4.99064739 L15.5471804,3.10943763 C15.5471804,2.25434228 15.1973686,1.47698287 14.6376699,0.909510506 C14.0701975,0.349811733 13.3006117,0.00777359407 12.4455163,0 C12.4532899,0 12.4455163,0 12.4455163,0 Z" id="形状"></path>
            </g>
        </g>
    </g>
</svg>