<?xml version="1.0" encoding="UTF-8"?>
<svg width="60px" height="60px" viewBox="0 0 60 60" version="1.1" xmlns="http://www.w3.org/2000/svg" xmlns:xlink="http://www.w3.org/1999/xlink">
    <title>icon-在线申请备份 4</title>
    <g id="绿卡申请" stroke="none" stroke-width="1" fill="none" fill-rule="evenodd">
        <g id="绿卡申请01" transform="translate(-1034.000000, -199.000000)">
            <g id="编组-4" transform="translate(302.000000, 199.000000)">
                <g id="icon-在线申请备份-4" transform="translate(732.000000, 0.000000)">
                    <circle id="椭圆形" fill="#0140CE" cx="30" cy="30" r="30"></circle>
                    <g id="编组" transform="translate(15.000000, 13.000000)" fill="#FFFFFF" fill-rule="nonzero">
                        <path d="M29.4064041,19.9631294 L24.1708608,19.9631294 C23.0100059,19.9631294 21.9619002,19.2689942 21.5086031,18.2005629 L19.7168906,13.9770763 C19.4568775,13.3638597 19.6237001,12.6612875 20.1191822,12.2160439 C21.8890352,10.6268195 22.8489359,8.15669532 22.2851908,5.48753463 C21.7275816,2.84521894 19.5899521,0.709890392 16.9464859,0.158033749 C12.4135147,-0.788444496 8.42281268,2.64541539 8.42281268,7.01156402 C8.42281268,9.11352806 9.35510142,10.98846 10.8227563,12.2701174 C11.3335784,12.716128 11.514207,13.4286712 11.2492084,14.0530093 L9.48970995,18.2005629 C9.03641284,19.2689942 7.98792357,19.9631294 6.82745227,19.9631294 L1.42201837,19.9631294 C0.636610165,19.9631294 0,20.5997395 0,21.3851477 L0,26.9562537 C0,27.7416619 0.636610165,28.378272 1.42201837,28.378272 L29.4064041,28.378272 C30.1918123,28.378272 30.8284226,27.7416619 30.8284226,26.9562537 L30.8284226,21.3855312 C30.828806,20.600123 30.1921958,19.9631294 29.4064041,19.9631294 L29.4064041,19.9631294 Z M28.7406479,31.1950803 L2.11116805,31.1950803 C1.71961444,31.1950803 1.40245986,31.5122349 1.40245986,31.9037885 L1.40245986,33.2912918 C1.40245986,33.6828454 1.71961444,34 2.11116805,34 L28.7406479,34 C29.1322015,34 29.4493561,33.6828454 29.4493561,33.2912918 L29.4493561,31.9037885 C29.4493561,31.5126184 29.1322015,31.1950803 28.7406479,31.1950803 Z" id="形状"></path>
                    </g>
                </g>
            </g>
        </g>
    </g>
</svg>