<?xml version="1.0" encoding="UTF-8"?>
<svg width="60px" height="60px" viewBox="0 0 60 60" version="1.1" xmlns="http://www.w3.org/2000/svg" xmlns:xlink="http://www.w3.org/1999/xlink">
    <title>icon-在线申请备份</title>
    <g id="绿卡申请" stroke="none" stroke-width="1" fill="none" fill-rule="evenodd">
        <g id="绿卡申请01" transform="translate(-494.000000, -199.000000)">
            <g id="编组-4" transform="translate(302.000000, 199.000000)">
                <g id="icon-在线申请备份" transform="translate(192.000000, 0.000000)">
                    <circle id="椭圆形" fill="#0140CE" cx="30" cy="30" r="30"></circle>
                    <g id="编组" transform="translate(14.000000, 14.000000)" fill="#FFFFFF" fill-rule="nonzero">
                        <path d="M22.704,0 L9.296,0 C3.472,0 0,3.472 0,9.296 L0,22.704 C0,28.528 3.472,32 9.296,32 L22.704,32 C28.528,32 32,28.528 32,22.704 L32,9.296 C32,3.472 28.528,0 22.704,0 Z M12.752,20.64 L9.152,24.24 C8.912,24.48 8.608,24.592 8.304,24.592 C8,24.592 7.68,24.48 7.456,24.24 L6.256,23.04 C5.776,22.576 5.776,21.808 6.256,21.344 C6.72,20.88 7.472,20.88 7.952,21.344 L8.304,21.696 L11.056,18.944 C11.52,18.48 12.272,18.48 12.752,18.944 C13.216,19.408 13.216,20.176 12.752,20.64 Z M12.752,9.44 L9.152,13.04 C8.912,13.28 8.608,13.392 8.304,13.392 C8,13.392 7.68,13.28 7.456,13.04 L6.256,11.84 C5.776,11.376 5.776,10.608 6.256,10.144 C6.72,9.68 7.472,9.68 7.952,10.144 L8.304,10.496 L11.056,7.744 C11.52,7.28 12.272,7.28 12.752,7.744 C13.216,8.208 13.216,8.976 12.752,9.44 Z M24.896,23.392 L16.496,23.392 C15.84,23.392 15.296,22.848 15.296,22.192 C15.296,21.536 15.84,20.992 16.496,20.992 L24.896,20.992 C25.568,20.992 26.096,21.536 26.096,22.192 C26.096,22.848 25.568,23.392 24.896,23.392 Z M24.896,12.192 L16.496,12.192 C15.84,12.192 15.296,11.648 15.296,10.992 C15.296,10.336 15.84,9.792 16.496,9.792 L24.896,9.792 C25.568,9.792 26.096,10.336 26.096,10.992 C26.096,11.648 25.568,12.192 24.896,12.192 Z" id="形状"></path>
                    </g>
                </g>
            </g>
        </g>
    </g>
</svg>