<?xml version="1.0" encoding="UTF-8"?>
<svg width="60px" height="60px" viewBox="0 0 60 60" version="1.1" xmlns="http://www.w3.org/2000/svg" xmlns:xlink="http://www.w3.org/1999/xlink">
    <title>icon-在线申请备份 2</title>
    <g id="绿卡申请" stroke="none" stroke-width="1" fill="none" fill-rule="evenodd">
        <g id="绿卡申请01" transform="translate(-674.000000, -199.000000)">
            <g id="编组-4" transform="translate(302.000000, 199.000000)">
                <g id="icon-在线申请备份-2" transform="translate(372.000000, 0.000000)">
                    <circle id="椭圆形" fill="#0140CE" cx="30" cy="30" r="30"></circle>
                    <g id="编组" transform="translate(15.000000, 14.000000)" fill="#FFFFFF" fill-rule="nonzero">
                        <path d="M30.111102,26.8188484 L25.2598523,21.5911203 C24.6907416,21.0219681 23.9188384,20.7022185 23.1139667,20.7022185 C22.3090951,20.7022185 21.5371919,21.0219681 20.9680812,21.5911203 C20.3989315,22.1602334 20.0791832,22.9321399 20.0791832,23.7370151 C20.0791832,24.5418902 20.3989315,25.3137967 20.9680812,25.8829098 L25.8188277,31.1106379 C26.3878933,31.6800674 27.1599289,32 27.9649649,32 C28.7700008,32 29.5420364,31.6800674 30.111102,31.1106379 C30.6802517,30.5415248 31,29.7696183 31,28.9647431 C31,28.159868 30.6802517,27.3879615 30.111102,26.8188484 Z" id="路径"></path>
                        <path d="M14,0 C21.7320886,0 28,6.26824843 28,14.0002171 C28,21.7321858 21.7320886,28 14,28 C6.26791142,28 0,21.7321858 0,14.0002171 C0,6.26824843 6.26791142,0 14,0 Z M16.3372895,4.73333333 C15.7460008,4.73333333 15.2666667,5.21266753 15.2666667,5.80395621 C15.2666667,6.39524488 15.7460008,6.87457906 16.3372895,6.87457908 C18.9774455,6.87457908 21.1254209,9.02255446 21.1254209,11.6627105 C21.1254209,12.2539991 21.6047551,12.7333333 22.1960438,12.7333333 C22.7873325,12.7333333 23.2666667,12.2539991 23.2666667,11.6627105 C23.2666667,7.83572115 20.1642788,4.73333333 16.3372895,4.73333333 Z" id="形状结合"></path>
                    </g>
                </g>
            </g>
        </g>
    </g>
</svg>