<?xml version="1.0" encoding="UTF-8"?>
<svg width="60px" height="60px" viewBox="0 0 60 60" version="1.1" xmlns="http://www.w3.org/2000/svg" xmlns:xlink="http://www.w3.org/1999/xlink">
    <title>icon-在线申请备份 3</title>
    <g id="绿卡申请" stroke="none" stroke-width="1" fill="none" fill-rule="evenodd">
        <g id="绿卡申请01" transform="translate(-854.000000, -199.000000)">
            <g id="编组-4" transform="translate(302.000000, 199.000000)">
                <g id="icon-在线申请备份-3" transform="translate(552.000000, 0.000000)">
                    <circle id="椭圆形" fill="#0140CE" cx="30" cy="30" r="30"></circle>
                    <g id="编组" transform="translate(14.011090, 16.000000)" fill="#FFFFFF" fill-rule="nonzero">
                        <path d="M25.7219928,0 C26.9542431,0 27.5703682,0.616125153 27.5703682,1.84837546 L27.5703682,20.2119856 C27.5703682,21.4442359 26.9542431,22.060361 25.7219928,22.060361 L5.93513358,22.060361 C4.70288327,22.060361 4.08675812,21.4442359 4.08675812,20.2119856 L4.08675812,1.84837546 C4.08675812,0.616125153 4.70288327,0 5.93513358,0 L25.7219928,0 Z M22.0816173,13.3360289 L9.57550903,13.3360289 C9.00004815,13.3360289 8.71231771,13.6237593 8.71231771,14.1992202 C8.71231771,14.7756053 9.00004815,15.0633357 9.57550903,15.0633357 L22.0816173,15.0633357 C22.6570782,15.0633357 22.9448087,14.7756053 22.9448087,14.2001444 C22.9448087,13.6237593 22.6570782,13.3360289 22.0816173,13.3360289 Z M22.0816173,8.80288808 L9.57550903,8.80288808 C9.00004815,8.80288808 8.71231771,9.09061853 8.71231771,9.66607941 C8.71231771,10.2424645 9.00004815,10.5301949 9.57550903,10.5301949 L22.0816173,10.5301949 C22.6570782,10.5301949 22.9448087,10.2424645 22.9448087,9.66700362 C22.9448087,9.09061853 22.6570782,8.80288808 22.0816173,8.80288808 Z M22.0816173,4.26974729 L9.57550903,4.26974729 C9.00004815,4.26974729 8.71231771,4.55747773 8.71231771,5.13293862 C8.71231771,5.70932371 9.00004815,5.99705415 9.57550903,5.99705415 L22.0816173,5.99705415 C22.6570782,5.99705415 22.9448087,5.70932371 22.9448087,5.13386282 C22.9448087,4.55747773 22.6570782,4.26974729 22.0816173,4.26974729 Z" id="形状结合" fill-opacity="0.8"></path>
                        <path d="M0,11.8332996 L0,23.6379495 C0,24.6183888 0.389477997,25.5586718 1.08275328,26.2519471 C1.77602856,26.9452224 2.71631162,27.3347004 3.69675092,27.3347004 L28.2921589,27.3347004 C30.333818,27.3347004 31.9889097,25.6796086 31.9889097,23.6379495 L31.9889097,11.9525199 L15.9939928,18.2083466 L0,11.8332996 Z" id="路径"></path>
                    </g>
                </g>
            </g>
        </g>
    </g>
</svg>