<?xml version="1.0" encoding="UTF-8"?>
<svg width="60px" height="60px" viewBox="0 0 60 60" version="1.1" xmlns="http://www.w3.org/2000/svg" xmlns:xlink="http://www.w3.org/1999/xlink">
    <title>icon-在线申请备份 5</title>
    <g id="绿卡申请" stroke="none" stroke-width="1" fill="none" fill-rule="evenodd">
        <g id="绿卡申请01" transform="translate(-1214.000000, -199.000000)">
            <g id="编组-4" transform="translate(302.000000, 199.000000)">
                <g id="icon-在线申请备份-5" transform="translate(912.000000, 0.000000)">
                    <circle id="椭圆形" fill="#0140CE" cx="30" cy="30" r="30"></circle>
                    <g id="编组-6" transform="translate(13.000000, 14.000000)" fill="#FFFFFF" fill-rule="nonzero">
                        <path d="M33.9744237,26.3228911 C34.0799421,24.9410135 33.5182046,23.6076477 32.5257495,22.8842517 C31.3025359,22.0032808 28.9317254,23.4882608 27.2642628,24.3271071 C26.0808036,24.9241506 19.4245752,24.9072344 17.9898012,24.8966203 C17.7537296,24.9125713 17.5294223,24.7723866 17.4059946,24.5317603 L17.3998786,24.5161708 C17.2222346,24.0435113 17.6375713,23.5565891 18.1891294,23.5565892 L19.5708048,23.5565892 C21.0417193,23.5565892 22.2340746,22.476272 22.2340746,21.1442014 C22.2340746,19.8117992 21.0417193,18.7318136 19.5708048,18.7318136 L8.06147625,18.7318136 C7.57775086,18.7318136 7.18576647,19.0867229 7.18576647,19.5248865 L7.18576647,28.8599946 C7.22121103,29.2600306 7.48465002,29.5771019 7.81961356,29.6228836 C9.07646558,29.9489357 12.0057843,30.6889381 14.8186197,31.2531442 C25.493939,34.1166316 32.8554612,27.8967643 33.7670334,26.8462993 C33.8494485,26.752307 33.9104822,26.6348583 33.9443994,26.5049893 C33.9794278,26.5129499 34,26.4529139 34,26.3019945 L33.9744237,26.3228911 Z" id="路径"></path>
                        <path d="M1.02662648,19.0449298 L3.96050854,19.0449298 C4.5275753,19.0449298 4.98912589,19.3938686 4.98912589,19.8240717 L4.98912589,29.9359998 C4.98912589,30.3671979 4.52923439,30.7151416 3.96050854,30.7151416 L1.02662648,30.7151416 C0.459559707,30.7151416 0,30.3662028 0,29.9359998 L0,19.8240717 C0,19.3938686 0.459559662,19.0449298 1.02662648,19.0449298 Z" id="路径"></path>
                        <g id="编组" transform="translate(7.426197, 0.000000)">
                            <path d="M16.8517145,0 C18.3667985,0 19.5950168,1.27538413 19.5950168,2.84865019 L19.5950168,12.6154508 C19.5950168,14.1887169 18.3667985,15.464101 16.8517145,15.464101 L2.74330235,15.464101 C1.2282183,15.464101 0,14.1887169 0,12.6154508 L0,2.84865019 C0,1.27538413 1.2282183,0 2.74330235,0 L16.8517145,0 L16.8517145,0 Z M6.0744552,4.06950026 C5.05081152,4.06950026 4.21528,4.88706286 4.17099528,5.91257693 L4.16903577,5.9984434 L4.16903577,6.77978746 C4.16903577,7.46264962 4.51978656,8.0629009 5.04846012,8.40555281 L5.1217455,8.45031732 L5.1217455,8.51542932 L3.0262544,9.6491921 C2.56577151,9.89865247 2.30163068,10.4061192 2.35924002,10.9314916 C2.41097086,11.4051815 2.7915061,11.7685878 3.2551242,11.799516 L3.31900394,11.8015508 L8.82951458,11.8015508 C9.3217414,11.8015508 9.73480436,11.4271568 9.7896704,10.9314916 C9.84213705,10.4308998 9.60759413,9.94475532 9.19006289,9.68866625 L9.12226412,9.6491921 L7.02677303,8.51542932 L7.02677303,8.45031732 C7.5715145,8.13167546 7.94577932,7.54729521 7.97713134,6.87257205 L7.97948274,6.77978746 L7.97948274,5.9984434 C7.97948274,4.93304822 7.1263157,4.06950026 6.07406332,4.06950026 L6.0744552,4.06950026 Z M14.3435523,10.1737507 L11.5218699,10.1737507 C11.4473667,10.1737349 11.3831456,10.2281735 11.368245,10.3039747 L11.3651097,10.3365307 L11.3651097,11.2367041 C11.3652805,11.3139155 11.417664,11.3803795 11.4905179,11.3958216 L11.5218699,11.3994842 L14.3435523,11.3994842 C14.4180555,11.3995 14.4822766,11.3450613 14.4971772,11.2692602 L14.5003124,11.2367041 L14.5003124,10.3365307 C14.5003124,10.2591665 14.4479022,10.1924791 14.3749043,10.1770063 L14.3435523,10.1737507 L14.3435523,10.1737507 Z M17.0868547,7.32510049 L11.5218699,7.32510049 C11.4473667,7.32508471 11.3831456,7.37952334 11.368245,7.45532449 L11.3651097,7.48788049 L11.3651097,8.38317057 C11.3651097,8.4605348 11.41752,8.52722213 11.4905179,8.54269498 L11.5218699,8.54595059 L17.0868547,8.54595059 C17.1613578,8.54596637 17.225579,8.49152773 17.2404796,8.41572657 L17.2436148,8.38317057 L17.2436148,7.48788049 C17.2436148,7.41051627 17.1912046,7.34382893 17.1182067,7.32835608 L17.0868547,7.32510049 L17.0868547,7.32510049 Z M17.0868547,4.4764503 L11.5218699,4.4764503 C11.4473667,4.47643451 11.3831456,4.53087315 11.368245,4.6066743 L11.3651097,4.6392303 L11.3651097,5.53329952 C11.3652805,5.61051083 11.417664,5.67697488 11.4905179,5.69241698 L11.5218699,5.69607952 L17.0868547,5.69607952 C17.1613578,5.69609531 17.225579,5.64165668 17.2404796,5.56585552 L17.2436148,5.53329952 L17.2436148,4.6392303 C17.2436148,4.56186607 17.1912046,4.49517874 17.1182067,4.47970589 L17.0868547,4.4764503 L17.0868547,4.4764503 Z" id="形状"></path>
                        </g>
                    </g>
                </g>
            </g>
        </g>
    </g>
</svg>