<?xml version="1.0" encoding="UTF-8"?>
<svg width="60px" height="60px" viewBox="0 0 60 60" version="1.1" xmlns="http://www.w3.org/2000/svg" xmlns:xlink="http://www.w3.org/1999/xlink">
    <title>icon-在线申请</title>
    <g id="绿卡申请" stroke="none" stroke-width="1" fill="none" fill-rule="evenodd">
        <g id="绿卡申请01" transform="translate(-302.000000, -199.000000)">
            <g id="icon-在线申请" transform="translate(302.000000, 199.000000)">
                <circle id="椭圆形" fill="#0140CE" cx="30" cy="30" r="30"></circle>
                <g id="编组" transform="translate(18.000000, 14.000000)" fill="#FFFFFF" fill-rule="nonzero">
                    <path d="M12,0 C7.58736842,0 4,3.59114858 4,8.00842993 C4,12.341412 7.38526316,15.8482613 11.7978947,16 C11.9326316,15.9831401 12.0673684,15.9831401 12.1684211,16 C12.2021053,16 12.2189474,16 12.2526316,16 C12.2694737,16 12.2694737,16 12.2863158,16 C16.5978947,15.8482613 19.9831579,12.341412 20,8.00842993 C20,3.59114858 16.4126316,0 12,0 Z" id="路径"></path>
                    <path d="M20.6590814,20.4168923 C15.9033861,17.1943692 8.14775042,17.1943692 3.35796409,20.4168923 C1.19318521,21.8722252 0,23.8646454 0,25.9956687 C0,28.1266919 1.19318521,30.1017867 3.34091858,31.5571197 C5.727289,33.1857066 8.86359336,34 11.9999659,34 C15.1363385,34 18.272711,33.1857066 20.6590814,31.5571197 C22.8068148,30.0844613 24,28.1093665 24,25.9610179 C23.9829545,23.84732 22.8068148,21.8548998 20.6590814,20.4168923 Z M15.9715681,24.5749865 L11.6761014,28.9409854 C11.4715553,29.1488901 11.1988273,29.2528424 10.9260992,29.2528424 C10.6533712,29.2528424 10.3806431,29.1315647 10.1760971,28.9409854 L8.0284319,26.7579859 C7.61933983,26.3421765 7.61933983,25.6491608 8.0284319,25.2333514 C8.43752397,24.817542 9.11927591,24.817542 9.52836798,25.2333514 L10.9260992,26.6540336 L14.4715638,23.0503519 C14.8806559,22.6345425 15.562476,22.6345425 15.9715681,23.0503519 C16.3977057,23.4661613 16.3977057,24.159177 15.9715681,24.5749865 Z" id="形状"></path>
                </g>
            </g>
        </g>
    </g>
</svg>