<?xml version="1.0" encoding="UTF-8"?><svg id="Layer_1" xmlns="http://www.w3.org/2000/svg" viewBox="0 0 92.83 64.24"><defs><style>.cls-1{fill:#fff;stroke-width:0px;}</style></defs><path class="cls-1" d="m41.09,1.71V0c-4.2,3.04-8.58,4.69-13.39,5.06-1.13.09-1.49.31-1.49,1.48.02,18.74,0,37.49-.05,56.23,0,1.07.27,1.43,1.38,1.39,3.94-.13,7.88-.25,11.81-.2,1.48.02,1.75-.48,1.75-1.84-.04-20.14-.03-40.28-.03-60.42Z"/><path class="cls-1" d="m66.07,19.89c.02-3.34-.4-6.43-1.96-9.48-2.62-5.12-6.69-8.3-11.97-10.31-.08.27-.15.41-.15.55.03,10.72.13,21.44.17,32.16,0,1.54,0,3.09,0,4.63,0,1.67,0,3.34,0,5,0,3.21,0,6.41,0,9.62,0,1.15,0,2.3,0,3.45,0,2.01-.06,4.02,0,6.03.02.77-.43,1.61.2,2.31.24,0,.47.02.71.02,2.86.58,5.74.25,8.61.28.93.02,1.87-.04,2.79.07,1.3.17,1.62-.3,1.61-1.59-.05-14.24-.07-28.48,0-42.73Z"/><path class="cls-1" d="m20.33,62.22c-1.69-1.65-3.55-3.23-4.35-5.49-2.67-7.56-2.66-15.16-.12-22.78,1-3.01,3.12-5.27,4.78-7.85.31-.48.88-.88.39-1.45-.44-.51-1.02-.19-1.57-.01-2.04.67-4.08,1.36-6.16,1.91C6.26,28.41.07,36.41.05,44.68c-.19,1.27.22,2.71.63,4.14,1.71,5.99,5.04,10.59,11.03,12.95,2.48.98,5,1.78,7.66,2.18.69.1,1.42.44,1.81-.27.39-.71-.43-1.07-.84-1.47Z"/><path class="cls-1" d="m91.98,39.25c-1.79-5.31-5.17-9.2-10.32-11.48-2.63-1.16-5.38-1.98-8.15-2.68-.65-.17-1.58-.44-2.03.23-.53.81.33,1.38.76,1.99.03.04.07.08.1.11,4.89,4.8,6.67,10.81,6.79,17.46-.05,1.34-.12,2.67-.26,4.01-.55,5.05-2.43,9.4-6.19,12.89-.46.43-1.29.84-.96,1.61.36.86,1.31.59,1.94.44,4.37-1,8.73-1.99,12.31-5.05,5.39-4.59,8.45-12.3,6.02-19.53Z"/></svg>