<?xml version="1.0" encoding="UTF-8"?>
<svg width="229px" height="31px" viewBox="0 0 229 31" version="1.1" xmlns="http://www.w3.org/2000/svg" xmlns:xlink="http://www.w3.org/1999/xlink">
    <title>logo</title>
    <defs>
        <path d="M60.466,27.096 L60.466,23.642 L66.296,23.642 L66.296,20.782 L60.466,20.782 L60.466,17.504 L66.846,17.504 L66.846,14.6 L57.43,14.6 L57.43,30 L66.956,30 L66.956,27.096 L60.466,27.096 Z M75.526,27.096 L75.526,14.6 L72.49,14.6 L72.49,30 L81.4,30 L81.4,27.096 L75.526,27.096 Z M100.674,30.308 C103.952,30.308 106.262,28.548 106.262,25.666 C106.262,22.52 103.666,21.706 101.224,20.936 C98.892,20.232 98.298,19.726 98.298,18.78 C98.298,17.9 99.046,17.24 100.322,17.24 C101.884,17.24 102.72,18.054 103.27,19.22 L105.822,17.746 C104.788,15.59 102.852,14.292 100.322,14.292 C97.682,14.292 95.262,15.964 95.262,18.868 C95.262,21.794 97.55,22.784 99.904,23.466 C102.192,24.126 103.226,24.566 103.226,25.71 C103.226,26.568 102.588,27.338 100.762,27.338 C98.848,27.338 97.77,26.414 97.22,24.984 L94.624,26.502 C95.46,28.79 97.528,30.308 100.674,30.308 Z M121.3,30 L124.6,30 L119.188,14.6 L115.426,14.6 L110.036,30 L113.314,30 L114.238,27.228 L120.376,27.228 L121.3,30 Z M115.206,24.39 L117.318,18.098 L119.43,24.39 L115.206,24.39 Z M132.532,27.096 L132.532,14.6 L129.496,14.6 L129.496,30 L138.406,30 L138.406,27.096 L132.532,27.096 Z M146.008,30 L149.77,30 L154.962,14.6 L151.64,14.6 L147.9,26.436 L144.138,14.6 L140.838,14.6 L146.008,30 Z M168.856,30 L172.156,30 L166.744,14.6 L162.982,14.6 L157.592,30 L160.87,30 L161.794,27.228 L167.932,27.228 L168.856,30 Z M162.762,24.39 L164.874,18.098 L166.986,24.39 L162.762,24.39 Z M183.168,14.6 L177.052,14.6 L177.052,30 L183.168,30 C187.414,30 190.582,26.634 190.582,22.3 C190.582,17.966 187.414,14.6 183.168,14.6 Z M183.168,27.096 L180.088,27.096 L180.088,17.504 L183.168,17.504 C185.83,17.504 187.678,19.462 187.678,22.3 C187.678,25.138 185.83,27.096 183.168,27.096 Z M203.42,30.308 C207.864,30.308 211.428,26.788 211.428,22.3 C211.428,17.79 207.864,14.292 203.42,14.292 C198.976,14.292 195.434,17.79 195.434,22.3 C195.434,26.788 198.976,30.308 203.42,30.308 Z M203.42,27.338 C200.626,27.338 198.448,25.248 198.448,22.3 C198.448,19.33 200.626,17.24 203.42,17.24 C206.214,17.24 208.392,19.33 208.392,22.3 C208.392,25.248 206.214,27.338 203.42,27.338 Z M225.41,30 L228.688,30 L225.278,24.192 C227.038,23.378 228.248,21.64 228.248,19.704 C228.248,16.888 225.96,14.6 223.122,14.6 L216.962,14.6 L216.962,30 L219.998,30 L219.998,24.654 L222.308,24.654 L225.41,30 Z M219.998,17.438 L223.122,17.438 C224.266,17.438 225.212,18.428 225.212,19.704 C225.212,20.98 224.266,21.992 223.122,21.992 L219.998,21.992 L219.998,17.438 Z M62.65,4.918 C63.294,4.47 63.714,3.756 63.714,2.874 C63.714,1.362 62.496,0.2 60.97,0.2 L57.05,0.2 L57.05,10 L61.278,10 C62.86,10 64.12,8.796 64.12,7.228 C64.12,6.164 63.532,5.338 62.65,4.918 Z M60.97,1.418 C61.782,1.418 62.426,2.09 62.426,2.916 C62.426,3.756 61.782,4.414 60.97,4.414 L58.352,4.414 L58.352,1.418 L60.97,1.418 Z M61.278,8.782 L58.352,8.782 L58.352,5.604 L61.278,5.604 C62.146,5.604 62.832,6.304 62.832,7.186 C62.832,8.082 62.146,8.782 61.278,8.782 Z M72.3736364,10.182 C75.2156364,10.182 77.4556364,7.914 77.4556364,5.1 C77.4556364,2.272 75.2156364,0.018 72.3736364,0.018 C69.5316364,0.018 67.3056364,2.272 67.3056364,5.1 C67.3056364,7.914 69.5316364,10.182 72.3736364,10.182 Z M72.3736364,8.908 C70.2316364,8.908 68.5936364,7.242 68.5936364,5.1 C68.5936364,2.944 70.2316364,1.278 72.3736364,1.278 C74.5156364,1.278 76.1536364,2.944 76.1536364,5.1 C76.1536364,7.242 74.5156364,8.908 72.3736364,8.908 Z M87.2772727,0.2 L87.2772727,7.508 L82.2372727,0.2 L81.1872727,0.2 L81.1872727,10 L82.4892727,10 L82.4892727,2.678 L87.5292727,10 L88.5792727,10 L88.5792727,0.2 L87.2772727,0.2 Z M97.3929091,10.182 C100.234909,10.182 102.474909,7.914 102.474909,5.1 C102.474909,2.272 100.234909,0.018 97.3929091,0.018 C94.5509091,0.018 92.3249091,2.272 92.3249091,5.1 C92.3249091,7.914 94.5509091,10.182 97.3929091,10.182 Z M97.3929091,8.908 C95.2509091,8.908 93.6129091,7.242 93.6129091,5.1 C93.6129091,2.944 95.2509091,1.278 97.3929091,1.278 C99.5349091,1.278 101.172909,2.944 101.172909,5.1 C101.172909,7.242 99.5349091,8.908 97.3929091,8.908 Z M109.020545,10.182 C111.022545,10.182 112.408545,9.09 112.408545,7.368 C112.408545,5.478 110.798545,4.974 109.090545,4.414 C107.718545,3.98 107.032545,3.644 107.032545,2.734 C107.032545,1.838 107.760545,1.278 108.810545,1.278 C110.000545,1.278 110.686545,1.95 111.036545,2.79 L112.128545,2.16 C111.582545,0.928 110.420545,0.018 108.810545,0.018 C107.172545,0.018 105.730545,1.026 105.730545,2.79 C105.730545,4.61 107.242545,5.1 108.810545,5.604 C110.252545,6.052 111.120545,6.388 111.120545,7.396 C111.120545,8.278 110.434545,8.908 109.048545,8.908 C107.620545,8.908 106.780545,8.208 106.430545,7.13 L105.310545,7.774 C105.828545,9.244 107.158545,10.182 109.020545,10.182 Z M125.597818,0.2 L121.775818,0.2 L121.775818,10 L125.597818,10 C128.299818,10 130.245818,7.816 130.245818,5.1 C130.245818,2.384 128.299818,0.2 125.597818,0.2 Z M125.597818,8.768 L123.077818,8.768 L123.077818,1.432 L125.597818,1.432 C127.613818,1.432 128.999818,3.028 128.999818,5.1 C128.999818,7.172 127.613818,8.768 125.597818,8.768 Z M135.293455,8.768 L135.293455,5.66 L139.423455,5.66 L139.423455,4.442 L135.293455,4.442 L135.293455,1.432 L139.773455,1.432 L139.773455,0.2 L133.991455,0.2 L133.991455,10 L139.843455,10 L139.843455,8.768 L135.293455,8.768 Z" id="path-1"></path>
    </defs>
    <g id="home" stroke="none" stroke-width="1" fill="none" fill-rule="evenodd">
        <g id="banner备份" transform="translate(-73.000000, -29.000000)">
            <g id="Header" transform="translate(73.000000, 20.000000)">
                <g id="logo" transform="translate(0.000000, 9.000000)">
                    <g id="形状结合" fill-rule="nonzero">
                        <use fill="#FFFFFF" xlink:href="#path-1"></use>
                        <use fill="#0140CE" xlink:href="#path-1"></use>
                    </g>
                    <g id="编组-3">
                        <rect id="矩形" fill="#0140CE" x="0" y="0" width="50" height="10"></rect>
                        <rect id="矩形备份-2" fill="#FFFFFF" x="0" y="10" width="50" height="10"></rect>
                        <rect id="矩形备份-3" fill="#0140CE" x="0" y="20" width="50" height="10"></rect>
                    </g>
                </g>
            </g>
        </g>
    </g>
</svg>