<?xml version="1.0" encoding="utf-8"?>
<!-- Generator: Adobe Illustrator 28.3.0, SVG Export Plug-In . SVG Version: 6.00 Build 0)  -->
<svg version="1.1" id="Layer_1" xmlns="http://www.w3.org/2000/svg" xmlns:xlink="http://www.w3.org/1999/xlink" x="0px" y="0px"
	 viewBox="0 0 306 156" style="enable-background:new 0 0 306 156;" xml:space="preserve">
<g>
	<path d="M196.88,61.28c1.98-4.08,3.38-8.83,3.54-13.32c0.47-13.02-12.72-20.67-24.07-14.18c-3.73,2.13-7.11,4.9-10.49,7.58
		c-4.28,3.39-8.4,6.99-12.59,10.5c0.02-1.91,0.62-3.26,1.14-4.64c3.51-9.29-0.58-15.48-10.53-15.88c-7.73-0.31-13.81,3.62-19.2,8.4
		c-5.04,4.46-9.48,9.61-14.65,14.94c-2.15-15.6-9.27-20.76-23.52-16.59c-11.46,3.35-22.75,7.53-33.67,12.38
		C36.46,57.74,21.51,67.46,8.89,80.35C3.93,85.42,4.22,91.01,9.81,94.9c4.76,3.32,10.11,5.78,15.2,8.62
		c-2.81-5.78-0.63-10.26,2.17-14.56c1.44-2.21,3.09-4.31,4.83-6.31c11.03-12.72,25.08-21.29,40.1-28.27
		c6.81-3.17,14.12-5.26,21.21-7.85c0.5,0.45,1,0.91,1.5,1.36c-0.75,2.72-1.1,5.63-2.32,8.12C85.87,69.64,78.7,83,72.34,96.74
		c-5.43,11.75-10.2,23.83-14.91,35.9c-3.12,8,4.56,16.82,13.74,15.77c3.08-18.84,11.68-35.54,20.94-51.92
		c9.11-16.11,18.51-32.1,32.34-44.75c4.41-4.04,9.63-7.19,14.48-10.75c0.49,0.54,0.97,1.09,1.46,1.63c-0.61,1.5-1.18,3.02-1.84,4.5
		c-9.64,21.58-19.53,43.05-28.8,64.79c-2.77,6.48-3.95,13.67-5.59,20.6c-2.61,11.01,8.48,17,18.39,15.38
		c-2.9-9.06-0.84-17.81,2.24-26.25c7.47-20.44,17.49-39.64,30.83-56.84c5.55-7.16,12.61-13.17,19.23-19.45
		c1.15-1.09,3.51-0.92,5.31-1.33c-0.19,1.7,0.05,3.6-0.64,5.06c-5.45,11.57-11.4,22.92-16.58,34.61
		c-5.73,12.94-10.77,26.18-12.31,40.43c-1.05,9.7,1.66,14.09,10.66,17.05c3.08,1.01,5.23,1.08,5.48-3.47
		c0.73-12.92,3.97-25.28,9.88-36.85C183.39,87.66,190.42,74.61,196.88,61.28z"/>
	<path d="M279.6,79.04c0.79-1.53,3.15-2.92,4.94-3.14c4.11-0.5,8.32-0.13,12.47-0.36c1.08-0.06,2.12-1.02,3.18-1.57
		c-0.75-1.14-1.27-2.92-2.3-3.3c-2.13-0.78-4.54-0.81-6.83-1.16c-2.2-0.33-4.4-0.66-7.25-1.09c2.18-4.08,3.94-7.44,5.75-10.77
		c2.15-3.95,1.24-6.14-3.11-7.33c-12.7-3.47-13.82-2.94-18.79,8.89c-0.26,0.61-0.56,1.21-0.78,1.84c-1.91,5.27-5.29,8.29-11.27,7.57
		c-1.29-0.15-2.73-0.03-3.94,0.41c-2.87,1.06-5.17,2.75-1.63,5.53c2.23,1.75,4.98,2.83,8.3,4.65c-3.34,7.74-6.93,17.01-11.3,25.9
		c-4.56,9.28-11.73,16.52-20.33,22.21c-4.96,3.29-10.5,5.54-16.49,3.96c-1.71-0.45-3.05-3.25-3.96-5.25
		c-0.26-0.57,1.43-2.86,2.48-3.08c17.39-3.59,26.62-15.82,33.05-30.99c1.62-3.82,0.64-7.45-1.98-10.7
		c-4.66-5.76-15.44-7.88-23.53-4.24c-14.43,6.49-22.49,18-26.1,33.15c-0.62,2.6-2.36,5.34-4.37,7.14
		c-4.97,4.46-10.39,8.42-15.63,12.57c3.54-1.15,6.43-3.22,9.37-5.23c3.08-2.11,6.19-4.16,8.42-5.65c2.49,4.75,3.93,10.06,7.31,13.43
		c8.51,8.48,23.54,7.98,34.93-0.55c5.44-4.07,10.43-8.73,15.95-13.39c0.14,7.73,1.94,15.01,9.74,18.04
		c6.81,2.65,13.57,0.07,18.14-5.18c6.97-8.01,13.09-16.75,19.37-25.33c0.94-1.29,0.8-3.38,1.16-5.1c-0.66-0.37-1.31-0.74-1.97-1.1
		c-2.11,2.29-4.33,4.5-6.3,6.9c-4.32,5.26-8.22,10.9-12.86,15.85c-3.19,3.4-7.34,5.91-11.06,8.82c-0.4-0.27-0.8-0.53-1.2-0.8
		c0.33-2.72,0.45-5.49,1.02-8.17C265.49,106.99,272.4,92.93,279.6,79.04z M217.64,97.49l2.4-2.52c0,0,7.11-5.72,9.42-5.81
		c-0.01,0.56-0.09,1.1-0.28,1.58c-3.83,9.4-9.15,17.61-20.11,22.01C209.73,105.59,213.81,101.58,217.64,97.49z"/>
	<path d="M180.08,23.33l23.65,1.92L210.46,48c0.64,2.15,3.76,1.9,4.04-0.33l4.74-37.64c0.27-2.11-1.78-3.77-3.79-3.08l-35.87,12.36
		C177.45,20.04,177.84,23.15,180.08,23.33z"/>
</g>
</svg>
