<?xml version="1.0" encoding="UTF-8"?>
<svg id="Layer_1" data-name="Layer 1" xmlns="http://www.w3.org/2000/svg" xmlns:xlink="http://www.w3.org/1999/xlink" viewBox="0 0 294.81 141.7">
  <defs>
    <style>
      .cls-1 {
        fill: url(#linear-gradient);
        stroke-width: 0px;
      }
    </style>
    <linearGradient id="linear-gradient" x1="0" y1="70.85" x2="294.81" y2="70.85" gradientUnits="userSpaceOnUse">
      <stop offset="0" stop-color="#2a7fff"/>
      <stop offset="1" stop-color="#756aff"/>
    </linearGradient>
  </defs>
  <path class="cls-1" d="M171.27,94.06c-5.91,11.57-9.15,23.93-9.88,36.85-.25,4.55-2.4,4.48-5.48,3.47-9-2.96-11.71-7.35-10.66-17.05,1.54-14.25,6.58-27.49,12.31-40.43,5.18-11.69,11.13-23.04,16.58-34.61.69-1.46.45-3.36.64-5.06-1.8.41-4.16.24-5.31,1.33-6.62,6.28-13.68,12.29-19.23,19.45-13.34,17.2-23.36,36.4-30.83,56.84-3.08,8.44-5.14,17.19-2.24,26.25-9.91,1.62-21-4.37-18.39-15.38,1.64-6.93,2.82-14.12,5.59-20.6,9.27-21.74,19.16-43.21,28.8-64.79.66-1.48,1.23-3,1.84-4.5-.49-.54-.97-1.09-1.46-1.63-4.85,3.56-10.07,6.71-14.48,10.75-13.83,12.65-23.23,28.64-32.34,44.75-9.26,16.38-17.86,33.08-20.94,51.92-9.18,1.05-16.86-7.77-13.74-15.77,4.71-12.07,9.48-24.15,14.91-35.9,6.36-13.74,13.53-27.1,20.16-40.73,1.22-2.49,1.57-5.4,2.32-8.12-.5-.45-1-.91-1.5-1.36-7.09,2.59-14.4,4.68-21.21,7.85-15.02,6.98-29.07,15.55-40.1,28.27-1.74,2-3.39,4.1-4.83,6.31-2.8,4.3-4.98,8.78-2.17,14.56-5.09-2.84-10.44-5.3-15.2-8.62-5.59-3.89-5.88-9.48-.92-14.55,12.62-12.89,27.57-22.61,43.95-29.88,10.92-4.85,22.21-9.03,33.67-12.38,14.25-4.17,21.37.99,23.52,16.59,5.17-5.33,9.61-10.48,14.65-14.94,5.39-4.78,11.47-8.71,19.2-8.4,9.95.4,14.04,6.59,10.53,15.88-.52,1.38-1.12,2.73-1.14,4.64,4.19-3.51,8.31-7.11,12.59-10.5,3.38-2.68,6.76-5.45,10.49-7.58,11.35-6.49,24.54,1.16,24.07,14.18-.16,4.49-1.56,9.24-3.54,13.32-6.46,13.33-13.49,26.38-20.23,39.57ZM256.82,115.63c-.57,2.68-.69,5.45-1.02,8.17.4.27.8.53,1.2.8,3.72-2.91,7.87-5.42,11.06-8.82,4.64-4.95,8.54-10.59,12.86-15.85,1.97-2.4,4.19-4.61,6.3-6.9.66.36,1.31.73,1.97,1.1-.36,1.72-.22,3.81-1.16,5.1-6.28,8.58-12.4,17.32-19.37,25.33-4.57,5.25-11.33,7.83-18.14,5.18-7.8-3.03-9.6-10.31-9.74-18.04-5.52,4.66-10.51,9.32-15.95,13.39-11.39,8.53-26.42,9.03-34.93.55-3.38-3.37-4.82-8.68-7.31-13.43-2.23,1.49-5.34,3.54-8.42,5.65-2.94,2.01-5.83,4.08-9.37,5.23,5.24-4.15,10.66-8.11,15.63-12.57,2.01-1.8,3.75-4.54,4.37-7.14,3.61-15.15,11.67-26.66,26.1-33.15,8.09-3.64,18.87-1.52,23.53,4.24,2.62,3.25,3.6,6.88,1.98,10.7-6.43,15.17-15.66,27.4-33.05,30.99-1.05.22-2.74,2.51-2.48,3.08.91,2,2.25,4.8,3.96,5.25,5.99,1.58,11.53-.67,16.49-3.96,8.6-5.69,15.77-12.93,20.33-22.21,4.37-8.89,7.96-18.16,11.3-25.9-3.32-1.82-6.07-2.9-8.3-4.65-3.54-2.78-1.24-4.47,1.63-5.53,1.21-.44,2.65-.56,3.94-.41,5.98.72,9.36-2.3,11.27-7.57.22-.63.52-1.23.78-1.84,4.97-11.83,6.09-12.36,18.79-8.89,4.35,1.19,5.26,3.38,3.11,7.33-1.81,3.33-3.57,6.69-5.75,10.77,2.85.43,5.05.76,7.25,1.09,2.29.35,4.7.38,6.83,1.16,1.03.38,1.55,2.16,2.3,3.3-1.06.55-2.1,1.51-3.18,1.57-4.15.23-8.36-.14-12.47.36-1.79.22-4.15,1.61-4.94,3.14-7.2,13.89-14.11,27.95-17.4,43.38ZM203.69,105.96c10.96-4.4,16.28-12.61,20.11-22.01.19-.48.27-1.02.28-1.58-2.31.09-9.42,5.81-9.42,5.81l-2.4,2.52c-3.83,4.09-7.91,8.1-8.57,15.26ZM174.7,16.54l23.65,1.92,6.73,22.75c.64,2.15,3.76,1.9,4.04-.33l4.74-37.64c.27-2.11-1.78-3.77-3.79-3.08l-35.87,12.36c-2.13.73-1.74,3.84.5,4.02Z"/>
</svg>